<svg xmlns="http://www.w3.org/2000/svg" width="600" height="400" viewBox="0 0 600 400">
  <defs>
    <linearGradient id="bg-tp-link" x1="0%" y1="0%" x2="100%" y2="100%">
      <stop offset="0%" style="stop-color:#004d40;stop-opacity:1" />
      <stop offset="100%" style="stop-color:#004d40;stop-opacity:0.8" />
    </linearGradient>
  </defs>
  <rect width="600" height="400" rx="12" fill="url(#bg-tp-link")/>
  <circle cx="480" cy="120" r="100" fill="#4db6ac" opacity="0.15"/>
  <circle cx="120" cy="320" r="80" fill="#4db6ac" opacity="0.1"/>
  <g transform="translate(300,160)" fill="none" stroke="white" stroke-width="2.5">
    <rect x="-60" y="-40" width="120" height="90" rx="8" stroke-width="3"/>
    <circle cx="0" cy="5" r="20" stroke-width="2.5"/>
    <circle cx="0" cy="5" r="6" fill="white" stroke="none"/>
    <rect x="-8" y="55" width="16" height="6" rx="2" fill="white" stroke="none"/>
    <rect x="-15" y="30" width="6" height="15" rx="2" fill="white" stroke="none"/>
    <rect x="9" y="30" width="6" height="15" rx="2" fill="white" stroke="none"/>
  </g>
  <g transform="translate(180,130)" fill="none" stroke="white" stroke-width="2">
    <rect x="-35" y="-25" width="70" height="55" rx="5"/>
    <circle cx="0" cy="2" r="12"/>
    <circle cx="0" cy="2" r="4" fill="white" stroke="none"/>
  </g>
  <g transform="translate(420,140)" fill="none" stroke="white" stroke-width="2">
    <rect x="-35" y="-25" width="70" height="55" rx="5"/>
    <circle cx="0" cy="2" r="12"/>
    <circle cx="0" cy="2" r="4" fill="white" stroke="none"/>
  </g>
  <rect x="30" y="30" width="24" height="24" rx="4" fill="none" stroke="white" stroke-width="2" opacity="0.6"/><circle cx="42" cy="52" r="10" fill="none" stroke="white" stroke-width="1.5" opacity="0.4"/>
  <text x="300" y="310" text-anchor="middle" fill="white" font-size="28" font-weight="bold" font-family="Arial, sans-serif">TP-Link Tapo</text>
  <text x="300" y="340" text-anchor="middle" fill="white" font-size="14" font-family="Arial, sans-serif" opacity="0.8">Kit de Cámaras de Seguridad</text>
  <text x="300" y="365" text-anchor="middle" fill="#4db6ac" font-size="12" font-family="Arial, sans-serif" opacity="0.9">HÍBRIDO</text>
</svg>